<svg width="108" height="108" viewBox="0 0 108 108" fill="none" xmlns="http://www.w3.org/2000/svg">
<path d="M69.454 74.1427H43.0916L43.1957 70.7255C43.2732 68.1678 43.4969 63.6801 44.1338 58.4108C38.2223 58.116 32.508 55.4643 28.2383 50.5888L33.0949 46.1771C36.2979 49.8342 40.6491 51.7372 45.1151 51.7802C46.3212 44.9717 47.9473 39.6564 49.9541 35.9693C53.2081 29.9884 57.7026 26.5232 62.2844 26.4622C65.4001 26.4232 68.0733 27.9774 69.665 30.732C73.2449 36.9258 68.6709 46.8687 59.0254 53.8581C56.4377 55.7332 53.6409 57.0245 50.7794 57.7471C50.3456 61.0105 50.0365 64.3398 49.853 67.5141H69.455V74.1427H69.454ZM62.4022 33.0908C62.3914 33.0908 62.3796 33.0908 62.3688 33.0908C60.7859 33.1118 58.0745 34.72 55.6458 39.1817C54.163 41.9073 52.9569 45.8572 52.0266 50.324C53.1355 49.8292 54.2169 49.2075 55.2522 48.4569C63.1676 42.7209 65.1911 36.0573 64.0557 34.0933C63.6603 33.4086 63.1343 33.0888 62.4022 33.0888V33.0908Z" fill="#2BB198"/>
<path d="M70.8694 87C68.9304 87 67.6377 85.6559 67.6377 83.6525C67.6377 81.6491 68.9304 80.3051 70.8694 80.3051C72.7957 80.3051 74.1011 81.6491 74.1011 83.6525C74.1011 85.6559 72.7957 87 70.8694 87ZM70.8694 85.732C71.8959 85.732 72.5929 84.9078 72.5929 83.6525C72.5929 82.3972 71.8959 81.5731 70.8694 81.5731C69.8302 81.5731 69.1458 82.3972 69.1458 83.6525C69.1458 84.9078 69.8302 85.732 70.8694 85.732Z" fill="#114454"/>
<path d="M64.6095 80.3051C66.6499 80.3051 66.6499 82.3212 66.6499 83.2721V86.8225H65.2051V83.3102C65.2051 82.5874 65.2051 81.5604 64.0899 81.5604C63.1267 81.5604 62.455 82.4226 62.455 83.7159V86.8225H61.0103V80.4826H62.455V81.6491C62.8732 80.8123 63.6463 80.3051 64.6095 80.3051Z" fill="#114454"/>
<path d="M58.4115 80.3051C59.4127 80.3051 60.059 81.0659 60.059 82.131C60.059 82.5874 59.9449 83.0439 59.7548 83.4243H58.2467C58.4622 83.0693 58.5635 82.7269 58.5635 82.4353C58.5635 81.9281 58.2847 81.5857 57.8412 81.5857C57.1568 81.5857 56.6752 82.4353 56.6752 83.7159V86.8225H55.2305V80.4826H56.6752V81.5604C57.0174 80.7742 57.6257 80.3051 58.4115 80.3051Z" fill="#114454"/>
<path d="M52.575 84.8191H54.1465C53.779 86.1505 52.6511 87 51.0669 87C49.0899 87 47.8352 85.6686 47.8352 83.6525C47.8352 81.6365 49.1025 80.3051 51.1049 80.3051C53.3354 80.3051 54.4887 81.9788 53.8804 84.0583H49.3687C49.4954 85.1107 50.0784 85.732 51.0922 85.732C51.8019 85.732 52.3596 85.4023 52.575 84.8191ZM51.0796 81.5223C50.1291 81.5223 49.5461 82.0549 49.394 83.0312H52.5116C52.6004 82.1183 52.0808 81.5223 51.0796 81.5223Z" fill="#114454"/>
<path d="M47.1673 81.7379H45.355V84.8191C45.355 85.339 45.4817 85.732 46.1788 85.732C46.5083 85.732 46.7617 85.6433 47.0279 85.5038V86.7718C46.7491 86.9112 46.3562 87 45.9 87C44.0116 87 43.9103 85.5165 43.9103 84.8318V81.7379H42.7063V80.4826H43.9103V78.7962H45.355V80.4826H47.1673V81.7379Z" fill="#114454"/>
<path d="M40.0301 80.3051C42.0705 80.3051 42.0705 82.3212 42.0705 83.2721V86.8225H40.6258V83.3102C40.6258 82.5874 40.6258 81.5604 39.5105 81.5604C38.5473 81.5604 37.8757 82.4226 37.8757 83.7159V86.8225H36.4309V80.4826H37.8757V81.6491C38.2939 80.8123 39.067 80.3051 40.0301 80.3051Z" fill="#114454"/>
<path d="M33.1843 86.8225V77.9466H34.7178V86.8225H33.1843Z" fill="#114454"/>
</svg>
