<svg width="400" height="174" viewBox="0 0 1113 485" fill="none" xmlns="http://www.w3.org/2000/svg">
    <g clip-path="url(#clip0_1618_12957)">
        <path d="M991.55 483.39C905.21 492.54 832.77 420.12 841.92 333.78C848.59 270.87 899.16 220.29 962.07 213.62C1048.41 204.47 1120.85 276.9 1111.7 363.24C1105.03 426.15 1054.46 476.73 991.55 483.4V483.39ZM985.3 283.83C942.71 278.42 906.73 314.4 912.14 356.99C915.83 386.03 939.27 409.47 968.31 413.16C1010.92 418.58 1046.91 382.58 1041.48 339.98C1037.78 310.95 1014.34 287.51 985.3 283.82V283.83Z" fill="#114454"/>
        <path d="M498 189.71C521.047 189.71 539.73 171.027 539.73 147.98C539.73 124.933 521.047 106.25 498 106.25C474.953 106.25 456.27 124.933 456.27 147.98C456.27 171.027 474.953 189.71 498 189.71Z" fill="#114454"/>
        <path d="M533.23 216.18H462.77V481.19H533.23V216.18Z" fill="#114454"/>
        <path d="M764.84 216.18L699.99 394.09L635.14 216.18H560.14L656.74 481.18H743.24L839.84 216.18H764.84Z" fill="#114454"/>
        <path d="M421.55 481.19H150.77L151.9 444.87C152.69 419.54 154.92 375.31 161.25 323.29C156.87 323.02 152.49 322.63 148.11 322.11C91.02 315.35 38.42 287.92 0 244.84L52.59 197.94C84.4 233.6 127.47 252.38 171.8 253.28C184.1 185.77 200.64 132.96 221.02 96.19C254.55 35.67 301.01 0.619987 348.46 -1.34937e-05C380.68 -0.270014 408.87 15.53 425.48 43.74C462.5 106.65 415.64 207.3 316.48 277.86C290.83 296.11 262.54 309.13 233.13 316.53C228.9 348 225.86 380.06 224 410.73H421.55V481.19ZM349.67 70.46C349.57 70.46 349.47 70.46 349.37 70.46C333.79 70.66 306.97 86.46 282.65 130.34C268.08 156.64 256.15 194.41 246.83 237.25C256.71 232.66 266.36 227.06 275.63 220.46C355.27 163.8 375.98 98.57 364.76 79.49C361.14 73.34 356.34 70.46 349.67 70.46Z" fill="#114454"/>
    </g>
    <defs>
        <clipPath id="clip0_1618_12957">
            <rect width="1112.48" height="484.17" fill="white"/>
        </clipPath>
    </defs>
</svg>
